<svg width="76" height="44" viewBox="0 0 76 44" fill="none" xmlns="http://www.w3.org/2000/svg">
<rect width="76" height="44" rx="8" fill="#222222"/>
<g clip-path="url(#clip0_1352_1650)">
<path d="M36.9375 30.0125C35.5562 27.6125 32.9625 26 30 26H26C23.0375 26 20.4438 27.6125 19.0625 30.0125C21.2625 32.4625 24.45 34 28 34C31.55 34 34.7375 32.4563 36.9375 30.0125ZM12 22C12 17.7565 13.6857 13.6869 16.6863 10.6863C19.6869 7.68571 23.7565 6 28 6C32.2435 6 36.3131 7.68571 39.3137 10.6863C42.3143 13.6869 44 17.7565 44 22C44 26.2435 42.3143 30.3131 39.3137 33.3137C36.3131 36.3143 32.2435 38 28 38C23.7565 38 19.6869 36.3143 16.6863 33.3137C13.6857 30.3131 12 26.2435 12 22ZM28 23C29.1935 23 30.3381 22.5259 31.182 21.682C32.0259 20.8381 32.5 19.6935 32.5 18.5C32.5 17.3065 32.0259 16.1619 31.182 15.318C30.3381 14.4741 29.1935 14 28 14C26.8065 14 25.6619 14.4741 24.818 15.318C23.9741 16.1619 23.5 17.3065 23.5 18.5C23.5 19.6935 23.9741 20.8381 24.818 21.682C25.6619 22.5259 26.8065 23 28 23Z" fill="#AAAAAA"/>
</g>
<g clip-path="url(#clip1_1352_1650)">
<path d="M63.7116 19.3588L63.1267 18.7892C62.9612 18.6169 62.7357 18.5149 62.4969 18.5044C62.3584 18.4907 62.2186 18.5092 62.0885 18.5587C61.9584 18.6081 61.8416 18.687 61.7471 18.7892L57.9982 22.4917L54.2492 18.7892C54.1548 18.687 54.0379 18.6081 53.9078 18.5587C53.7777 18.5092 53.6379 18.4907 53.4994 18.5044C53.2607 18.5149 53.0351 18.6169 52.8696 18.7892L52.2998 19.3588C52.1196 19.5264 52.012 19.7577 51.9998 20.0034C51.9971 20.1332 52.0225 20.262 52.0743 20.381C52.126 20.5 52.2029 20.6064 52.2998 20.6929L57.3084 25.7146C57.3963 25.8087 57.5033 25.8827 57.6223 25.9319C57.7413 25.981 57.8695 26.004 57.9982 25.9994C58.1289 26.0024 58.2588 25.9787 58.38 25.9297C58.5012 25.8808 58.6111 25.8076 58.703 25.7146L63.7116 20.7379C63.8117 20.6451 63.8894 20.5308 63.9388 20.4035C63.9881 20.2762 64.0079 20.1394 63.9965 20.0034C63.9883 19.7598 63.8862 19.5289 63.7116 19.3588Z" fill="#AAAAAA"/>
</g>
<defs>
<clipPath id="clip0_1352_1650">
<rect width="32" height="32" fill="white" transform="translate(12 6)"/>
</clipPath>
<clipPath id="clip1_1352_1650">
<rect width="12" height="12" fill="white" transform="translate(52 16)"/>
</clipPath>
</defs>
</svg>
